<svg xmlns="http://www.w3.org/2000/svg" xml:space="preserve" width="63mm" height="22mm" style="shape-rendering:geometricPrecision;text-rendering:geometricPrecision;image-rendering:optimizeQuality;fill-rule:evenodd;clip-rule:evenodd" viewBox="0 0 1965 686"><defs><style>.fil2{fill:#5d5e60;fill-rule:nonzero}</style></defs><g id="Vrstva_x0020_1"><path style="fill:none" d="M0 0h1965v686H0z"/><path style="fill:#5d5e60" d="M663 34h8v624h-8z"/><path class="fil2" d="M901 296v-45h30l2-11-1-2h-31v-31h41l2-11-1-2h-58v102z"/><path id="1" class="fil2" d="M980 267v14c-5 3-10 5-15 5s-9-3-9-7c0-7 6-11 24-12zm16 14v-31c0-19-12-24-26-24-8 0-18 1-25 4l-1 2 3 9c8-2 13-4 20-4 10 0 15 5 14 19l-7 1c-24 3-33 11-33 24 0 12 9 17 20 17 10 0 16-2 22-8 2 5 6 8 12 8 11 0 13-6 10-10-5 1-8-1-8-7z"/><path id="2" class="fil2" d="m1066 228-29 31v-72l-2-1-14 2v108h16v-37l31 37h19l1-3-34-34v-1l29-28-1-2z"/><path id="3" class="fil2" d="M1100 228v44c0 15 7 25 24 25 10 0 18-4 24-8 2 6 6 8 13 8 11 0 13-6 10-10-5 1-8-1-8-7v-53l-2-2-14 3v50c-7 5-11 7-17 7-8 0-13-6-13-15v-43l-2-2-14 3z"/><path id="4" class="fil2" d="m1201 186-14 2v108h16V187z"/><path id="5" class="fil2" d="M1246 228v-23l-2-2-14 3v22h-9l-2 9 2 2h9v39c0 13 7 20 19 20 8 0 14-1 21-3l1-2-3-10c-6 2-10 3-14 3-6 0-8-4-8-10v-36h19l2-10-2-2-20 1z"/><path id="6" class="fil2" d="M1321 267v14c-5 3-10 5-15 5s-9-3-9-7c0-7 6-11 24-12zm16 14v-31c0-19-12-24-26-24-8 0-18 1-25 4l-1 2 3 9c8-2 13-4 20-4 10 0 15 5 14 19l-7 1c-24 3-33 11-33 24 0 12 9 17 20 17 10 0 16-2 22-8 2 5 6 8 12 8 11 0 13-6 10-10-5 1-8-1-8-7z"/><path id="7" class="fil2" d="M903 394v-23l-2-2-14 3v22h-9l-2 9 2 2h9v39c0 13 7 20 19 20 8 0 14-1 21-3l1-2-3-10c-6 2-10 3-14 3-6 0-8-4-8-10v-36h19l2-10-2-2-20 1z"/><path id="8" class="fil2" d="M956 430h44l2-2c0-24-9-36-27-36-17 0-34 11-34 37s14 35 33 35c10 0 16-1 24-4l1-3-3-10c-7 2-12 3-20 3-13 0-18-8-19-21zm0-9c2-12 9-17 17-17 9 0 13 7 13 16l-30 1zm17-50-13-16h-9l-1 2 16 26h13l16-26-1-2h-9l-13 16z"/><path id="9" class="fil2" d="m1034 353-14 2v107h16V354z"/><path id="10" class="fil2" d="M1071 430h44l2-2c0-24-9-36-27-36-17 0-34 11-34 37s14 35 33 35c10 0 16-1 24-4l1-3-3-10c-7 2-12 3-20 3-13 0-18-8-19-21zm0-9c2-12 9-17 17-17 9 0 13 7 13 16l-30 1z"/><path id="11" class="fil2" d="M1158 392c-18 0-26 8-26 20 0 11 7 15 18 20 10 5 14 8 14 12 0 5-4 9-11 9-6 0-13-3-19-5l-4 10 1 2c8 3 16 4 24 4 14 0 26-6 26-20 0-11-7-16-18-22-11-5-14-8-14-12s3-7 10-7c5 0 11 2 17 3l4-10-1-2c-7-2-13-3-19-3z"/><path id="12" class="fil2" d="M1260 462v-45c0-15-7-25-24-25-10 0-19 4-24 8-2-6-6-8-13-8-11 0-13 6-10 10 5-1 8 1 8 7v53h16v-51c7-5 11-7 17-7 8 0 13 6 13 15v42h16z"/><path id="13" class="fil2" d="M1295 430h44l2-2c0-24-9-36-27-36-17 0-34 11-34 37s14 35 33 35c10 0 16-1 24-4l1-3-3-10c-7 2-12 3-20 3-13 0-18-8-19-21zm0-9c2-12 9-17 17-17 9 0 13 7 13 16l-30 1zm6-38h10l21-26-1-2h-14l-16 26 1 2z"/><path id="14" class="fil2" d="m1447 394-29 32v-72l-2-1-13 2v107h15v-36l32 36h18l1-2-33-34v-1l28-28-1-3z"/><path id="15" class="fil2" d="M1481 395v44c0 15 7 25 24 25 10 0 18-4 24-8 2 6 6 8 13 8 11 0 13-6 10-10-5 1-8-1-8-7v-53l-2-2-14 3v50c-7 5-11 7-17 7-8 0-13-6-13-15v-43l-2-2-14 3z"/><path id="16" class="fil2" d="m1582 353-13 2v107h15V354z"/><path id="17" class="fil2" d="M1627 394v-23l-2-2-14 3v22h-9l-2 9 2 2h9v39c0 13 7 20 19 20 8 0 14-1 21-3l1-2-3-10c-6 2-10 3-14 3-6 0-8-4-8-10v-36h19l2-10-2-2-20 1z"/><path id="18" class="fil2" d="M1669 395v44c0 15 7 25 24 25 10 0 18-4 24-8 2 6 6 8 13 8 11 0 13-6 10-10-5 1-8-1-8-7v-53l-2-2-14 3v50c-7 5-11 7-17 7-8 0-13-6-13-15v-43l-2-2-14 3z"/><path id="19" class="fil2" d="M1773 417c4-7 12-11 17-11 3 0 6 1 9 3h2l6-12-1-2c-3-2-8-2-11-2-10 0-18 6-22 13-1-10-6-13-13-13-11 0-13 6-10 10 5-1 8 1 8 7v53h16v-45z"/><path id="20" class="fil2" d="m1808 397 27 66h3l-14 32 1 3 12 2 40-103-1-3h-13l-19 53h-1l-18-53h-15z"/><path d="M261 540c29-41 166-170 201-388-88 26-228 22-321 3-4 29-33 51-62 55 27 168 155 291 182 330zm-63-275h-46v3c15 1 20 17 22 39 1 12 2 26 4 40s3 28 4 41c4 34 26 58 79 60 40-1 62-15 73-36 7-12 9-27 10-42 2-20 4-43 6-61 3-26 7-43 24-41v-3h-46l-10 122c-5 29-31 46-57 44V320c32 2 53-14 54-61 0-46-30-57-42-58-30-1-83 3-96-4l-16 16h76v215c-16-2-28-15-34-41l-6-122zm64-51v95c16 1 29-14 30-47 1-30-8-49-30-47z" style="fill:#099652"/></g></svg>